<mxfile host="app.diagrams.net" modified="2022-10-07T16:24:24.147Z" agent="5.0 (Windows)" etag="BfyBopKsgYvBKk-Nne9P" version="20.4.0" type="github">
  <diagram id="C5RBs43oDa-KdzZeNtuy" name="Page-1">
    <mxGraphModel dx="1422" dy="762" grid="1" gridSize="10" guides="1" tooltips="1" connect="1" arrows="1" fold="1" page="1" pageScale="1" pageWidth="827" pageHeight="1169" math="0" shadow="0">
      <root>
        <mxCell id="WIyWlLk6GJQsqaUBKTNV-0" />
        <mxCell id="WIyWlLk6GJQsqaUBKTNV-1" parent="WIyWlLk6GJQsqaUBKTNV-0" />
        <mxCell id="5mG0sUWCkoDWKFYtZR78-9" style="edgeStyle=orthogonalEdgeStyle;rounded=0;orthogonalLoop=1;jettySize=auto;html=1;entryX=0.5;entryY=1;entryDx=0;entryDy=0;" edge="1" parent="WIyWlLk6GJQsqaUBKTNV-1" source="5mG0sUWCkoDWKFYtZR78-0" target="5mG0sUWCkoDWKFYtZR78-2">
          <mxGeometry relative="1" as="geometry" />
        </mxCell>
        <mxCell id="5mG0sUWCkoDWKFYtZR78-0" value="SEND AGAIN" style="rounded=1;whiteSpace=wrap;html=1;" vertex="1" parent="WIyWlLk6GJQsqaUBKTNV-1">
          <mxGeometry x="50" y="490" width="120" height="60" as="geometry" />
        </mxCell>
        <mxCell id="5mG0sUWCkoDWKFYtZR78-11" style="edgeStyle=orthogonalEdgeStyle;rounded=0;orthogonalLoop=1;jettySize=auto;html=1;" edge="1" parent="WIyWlLk6GJQsqaUBKTNV-1" source="5mG0sUWCkoDWKFYtZR78-1" target="5mG0sUWCkoDWKFYtZR78-4">
          <mxGeometry relative="1" as="geometry" />
        </mxCell>
        <mxCell id="5mG0sUWCkoDWKFYtZR78-1" value="SEND MONEY FLOW" style="rounded=1;whiteSpace=wrap;html=1;" vertex="1" parent="WIyWlLk6GJQsqaUBKTNV-1">
          <mxGeometry x="600" y="490" width="120" height="60" as="geometry" />
        </mxCell>
        <mxCell id="5mG0sUWCkoDWKFYtZR78-2" value="Show Quote Screen" style="rounded=0;whiteSpace=wrap;html=1;" vertex="1" parent="WIyWlLk6GJQsqaUBKTNV-1">
          <mxGeometry x="50" y="20" width="120" height="60" as="geometry" />
        </mxCell>
        <mxCell id="5mG0sUWCkoDWKFYtZR78-3" value="Show Destination country select" style="rounded=0;whiteSpace=wrap;html=1;" vertex="1" parent="WIyWlLk6GJQsqaUBKTNV-1">
          <mxGeometry x="600" y="30" width="120" height="60" as="geometry" />
        </mxCell>
        <mxCell id="5mG0sUWCkoDWKFYtZR78-7" style="edgeStyle=orthogonalEdgeStyle;rounded=0;orthogonalLoop=1;jettySize=auto;html=1;entryX=0.5;entryY=1;entryDx=0;entryDy=0;" edge="1" parent="WIyWlLk6GJQsqaUBKTNV-1" source="5mG0sUWCkoDWKFYtZR78-4" target="5mG0sUWCkoDWKFYtZR78-5">
          <mxGeometry relative="1" as="geometry" />
        </mxCell>
        <mxCell id="5mG0sUWCkoDWKFYtZR78-12" style="edgeStyle=orthogonalEdgeStyle;rounded=0;orthogonalLoop=1;jettySize=auto;html=1;entryX=0.5;entryY=1;entryDx=0;entryDy=0;" edge="1" parent="WIyWlLk6GJQsqaUBKTNV-1" source="5mG0sUWCkoDWKFYtZR78-4" target="5mG0sUWCkoDWKFYtZR78-3">
          <mxGeometry relative="1" as="geometry" />
        </mxCell>
        <mxCell id="5mG0sUWCkoDWKFYtZR78-4" value="DOES IT HAVE PREVIOUS CONTRACTS" style="rhombus;whiteSpace=wrap;html=1;" vertex="1" parent="WIyWlLk6GJQsqaUBKTNV-1">
          <mxGeometry x="620" y="340" width="80" height="80" as="geometry" />
        </mxCell>
        <mxCell id="5mG0sUWCkoDWKFYtZR78-8" style="edgeStyle=orthogonalEdgeStyle;rounded=0;orthogonalLoop=1;jettySize=auto;html=1;entryX=0.5;entryY=1;entryDx=0;entryDy=0;" edge="1" parent="WIyWlLk6GJQsqaUBKTNV-1" source="5mG0sUWCkoDWKFYtZR78-5" target="5mG0sUWCkoDWKFYtZR78-6">
          <mxGeometry relative="1" as="geometry" />
        </mxCell>
        <mxCell id="5mG0sUWCkoDWKFYtZR78-13" style="edgeStyle=orthogonalEdgeStyle;rounded=0;orthogonalLoop=1;jettySize=auto;html=1;" edge="1" parent="WIyWlLk6GJQsqaUBKTNV-1" source="5mG0sUWCkoDWKFYtZR78-5" target="5mG0sUWCkoDWKFYtZR78-3">
          <mxGeometry relative="1" as="geometry" />
        </mxCell>
        <mxCell id="5mG0sUWCkoDWKFYtZR78-5" value="DOES IT HAVE CONTRACTS STORED IN THE CACHE" style="rhombus;whiteSpace=wrap;html=1;" vertex="1" parent="WIyWlLk6GJQsqaUBKTNV-1">
          <mxGeometry x="450" y="260" width="80" height="80" as="geometry" />
        </mxCell>
        <mxCell id="5mG0sUWCkoDWKFYtZR78-10" style="edgeStyle=orthogonalEdgeStyle;rounded=0;orthogonalLoop=1;jettySize=auto;html=1;" edge="1" parent="WIyWlLk6GJQsqaUBKTNV-1" source="5mG0sUWCkoDWKFYtZR78-6" target="5mG0sUWCkoDWKFYtZR78-2">
          <mxGeometry relative="1" as="geometry">
            <mxPoint x="110" y="220" as="targetPoint" />
          </mxGeometry>
        </mxCell>
        <mxCell id="5mG0sUWCkoDWKFYtZR78-14" style="edgeStyle=orthogonalEdgeStyle;rounded=0;orthogonalLoop=1;jettySize=auto;html=1;entryX=0.5;entryY=1;entryDx=0;entryDy=0;" edge="1" parent="WIyWlLk6GJQsqaUBKTNV-1" source="5mG0sUWCkoDWKFYtZR78-6" target="5mG0sUWCkoDWKFYtZR78-3">
          <mxGeometry relative="1" as="geometry" />
        </mxCell>
        <mxCell id="5mG0sUWCkoDWKFYtZR78-6" value="IS THE CONTRACT SAVED IN THE CACHE SAME AS LATEST CONTRACT?" style="rhombus;whiteSpace=wrap;html=1;" vertex="1" parent="WIyWlLk6GJQsqaUBKTNV-1">
          <mxGeometry x="310" y="180" width="80" height="80" as="geometry" />
        </mxCell>
        <mxCell id="5mG0sUWCkoDWKFYtZR78-15" value="&lt;div&gt;YES&lt;/div&gt;" style="text;html=1;strokeColor=none;fillColor=none;align=center;verticalAlign=middle;whiteSpace=wrap;rounded=0;" vertex="1" parent="WIyWlLk6GJQsqaUBKTNV-1">
          <mxGeometry x="560" y="350" width="60" height="30" as="geometry" />
        </mxCell>
        <mxCell id="5mG0sUWCkoDWKFYtZR78-16" value="&lt;div&gt;YES&lt;/div&gt;" style="text;html=1;strokeColor=none;fillColor=none;align=center;verticalAlign=middle;whiteSpace=wrap;rounded=0;" vertex="1" parent="WIyWlLk6GJQsqaUBKTNV-1">
          <mxGeometry x="390" y="270" width="60" height="30" as="geometry" />
        </mxCell>
        <mxCell id="5mG0sUWCkoDWKFYtZR78-17" value="&lt;div&gt;YES&lt;/div&gt;" style="text;html=1;strokeColor=none;fillColor=none;align=center;verticalAlign=middle;whiteSpace=wrap;rounded=0;" vertex="1" parent="WIyWlLk6GJQsqaUBKTNV-1">
          <mxGeometry x="250" y="190" width="60" height="30" as="geometry" />
        </mxCell>
        <mxCell id="5mG0sUWCkoDWKFYtZR78-18" value="&lt;div&gt;NO&lt;/div&gt;" style="text;html=1;strokeColor=none;fillColor=none;align=center;verticalAlign=middle;whiteSpace=wrap;rounded=0;" vertex="1" parent="WIyWlLk6GJQsqaUBKTNV-1">
          <mxGeometry x="660" y="310" width="60" height="30" as="geometry" />
        </mxCell>
        <mxCell id="5mG0sUWCkoDWKFYtZR78-19" value="&lt;div&gt;NO&lt;/div&gt;" style="text;html=1;strokeColor=none;fillColor=none;align=center;verticalAlign=middle;whiteSpace=wrap;rounded=0;" vertex="1" parent="WIyWlLk6GJQsqaUBKTNV-1">
          <mxGeometry x="550" y="270" width="60" height="30" as="geometry" />
        </mxCell>
        <mxCell id="5mG0sUWCkoDWKFYtZR78-20" value="&lt;div&gt;NO&lt;/div&gt;" style="text;html=1;strokeColor=none;fillColor=none;align=center;verticalAlign=middle;whiteSpace=wrap;rounded=0;" vertex="1" parent="WIyWlLk6GJQsqaUBKTNV-1">
          <mxGeometry x="410" y="190" width="60" height="30" as="geometry" />
        </mxCell>
      </root>
    </mxGraphModel>
  </diagram>
</mxfile>
